<svg xmlns="http://www.w3.org/2000/svg" width="800" height="150"><path d="M388.2 71.8l31.9 4.8-12.8-21.1z" fill="#84CEC2" shape-rendering="crispEdges"/><path d="M388.2 71.8l-7 28.2 38.9-23.4z" fill="#74C7C7" shape-rendering="crispEdges"/><path d="M407.3 55.5l-28.3-15 9.2 31.3z" fill="#95D5BC" shape-rendering="crispEdges"/><path d="M388.2 71.8l-36.8 8.1 29.8 20.1z" fill="#79C8C6" shape-rendering="crispEdges"/><path d="M381.2 100l44.8 9.1-5.9-32.5z" fill="#64BDCC" shape-rendering="crispEdges"/><path d="M442.6 96.5l4.6-12.5-27.1-7.4z" fill="#69C0CB" shape-rendering="crispEdges"/><path d="M420.1 76.6l19.5-34.3-32.3 13.2z" fill="#8DD1BF" shape-rendering="crispEdges"/><path d="M439.6 42.3l-35.1-15.5 2.8 28.7z" fill="#9FD8C4" shape-rendering="crispEdges"/><path d="M407.3 55.5l-2.8-28.7L379 40.5z" fill="#A3DAC3" shape-rendering="crispEdges"/><path d="M426 109.1l16.6-12.6-22.5-19.9z" fill="#60BBCE" shape-rendering="crispEdges"/><path d="M447.2 84l-7.6-41.7-19.5 34.3z" fill="#7FCBC4" shape-rendering="crispEdges"/><path d="M404.5 26.8L383 27l-4 13.5z" fill="#ACDEC7" shape-rendering="crispEdges"/><path d="M359 27.1L354.6 55 379 40.5z" fill="#AADDC0" shape-rendering="crispEdges"/><path d="M379 40.5L354.6 55l33.6 16.8z" fill="#99D7BB" shape-rendering="crispEdges"/><path d="M354.6 55l-3.2 24.9 36.8-8.1z" fill="#8CD2BF" shape-rendering="crispEdges"/><path d="M351.4 79.9l14 36.1 15.8-16z" fill="#6EBDC7" shape-rendering="crispEdges"/><path d="M381.2 100l41 28.8 3.8-19.7z" fill="#58AAC2" shape-rendering="crispEdges"/><path d="M365.4 116l56.8 12.8-41-28.8z" fill="#5DAAC0" shape-rendering="crispEdges"/><path d="M452 134.9l17.7-27.9-27.1-10.5z" fill="#4CA4C5" shape-rendering="crispEdges"/><path d="M473 85.2L463.8 59l-16.6 25z" fill="#6EC3C9" shape-rendering="crispEdges"/><path d="M447.2 84l16.6-25-24.2-16.7z" fill="#84CCC3" shape-rendering="crispEdges"/><path d="M360.5-26.6L359 27.1l24-.1z" fill="#BDE5D2" shape-rendering="crispEdges"/><path d="M383 27l-24 .1 20 13.4z" fill="#AFDFC6" shape-rendering="crispEdges"/><path d="M469.7 107l-22.5-23-4.6 12.5z" fill="#59B7CE" shape-rendering="crispEdges"/><path d="M469.7 107l3.3-21.8-25.8-1.2z" fill="#5BB9D0" shape-rendering="crispEdges"/><path d="M452 134.9l-9.4-38.4-16.6 12.6z" fill="#50A5C4" shape-rendering="crispEdges"/><path d="M463.8 59l-8.4-46.1-15.8 29.4z" fill="#9DD4C9" shape-rendering="crispEdges"/><path d="M439.6 42.3L425.8-4.2l-21.3 31z" fill="#ABDCD0" shape-rendering="crispEdges"/><path d="M404.5 26.8l-6.1-46.1L383 27z" fill="#B5E2D3" shape-rendering="crispEdges"/><path d="M462.6 7.3l-7.2 5.6 8.4 46.1z" fill="#A3D6D0" shape-rendering="crispEdges"/><path d="M455.4 12.9L425.8-4.2l13.8 46.5z" fill="#ABDBD4" shape-rendering="crispEdges"/><path d="M422.2 128.8l29.8 6.1-26-25.8z" fill="#4D9BBE" shape-rendering="crispEdges"/><path d="M331.7 111.6l33.7 4.4-14-36.1z" fill="#70BAC3" shape-rendering="crispEdges"/><path d="M331.7 111.6l11.5 10.1 22.2-5.7z" fill="#69ACBC" shape-rendering="crispEdges"/><path d="M365.4 116l6.3 32 50.5-19.2z" fill="#579AB8" shape-rendering="crispEdges"/><path d="M422.2 128.8l9 27.4 20.8-21.3z" fill="#488AB1" shape-rendering="crispEdges"/><path d="M315.9 70.5l35.5 9.4 3.2-24.9z" fill="#92D4BD" shape-rendering="crispEdges"/><path d="M317.1 16.2l14 22.6L359 27.1z" fill="#B9E3C6" shape-rendering="crispEdges"/><path d="M359 27.1l-27.9 11.7L354.6 55z" fill="#AEDFC0" shape-rendering="crispEdges"/><path d="M315.9 70.5l15.8 41.1 19.7-31.7z" fill="#80C9C4" shape-rendering="crispEdges"/><path d="M333.7 124.2l38 23.8-28.5-26.3z" fill="#629CB5" shape-rendering="crispEdges"/><path d="M343.2 121.7l28.5 26.3-6.3-32z" fill="#609EB7" shape-rendering="crispEdges"/><path d="M371.7 148l48.9 7.1 1.6-26.3z" fill="#4E89AA" shape-rendering="crispEdges"/><path d="M468 178.4l4.8-55.3-20.8 11.8z" fill="#3F80AC" shape-rendering="crispEdges"/><path d="M452 134.9l20.8-11.8-3.1-16.1z" fill="#459AC2" shape-rendering="crispEdges"/><path d="M469.7 107l32.1-.7L473 85.2z" fill="#4FAFCE" shape-rendering="crispEdges"/><path d="M467.2-6.3l-4.6 13.6 46.9-12.8z" fill="#AFDAE0" shape-rendering="crispEdges"/><path d="M455.4 12.9l-11.7-37.4-17.9 20.3z" fill="#B5DFDD" shape-rendering="crispEdges"/><path d="M331.7 111.6l2 12.6 9.5-2.5z" fill="#6AAABA" shape-rendering="crispEdges"/><path d="M420.6 155.1l10.6 1.1-9-27.4z" fill="#4984A8" shape-rendering="crispEdges"/><path d="M331.1 38.8l-15.2 31.7L354.6 55z" fill="#A3DBB8" shape-rendering="crispEdges"/><path d="M331.7 111.6l-38-4.5 40 17.1z" fill="#71B0BB" shape-rendering="crispEdges"/><path d="M433.6-36.8l-35.2 17.5 27.4 15.1z" fill="#B9E2DB" shape-rendering="crispEdges"/><path d="M425.8-4.2l-27.4-15.1 6.1 46.1z" fill="#B9E3DA" shape-rendering="crispEdges"/><path d="M513 32.8L462.6 7.3l1.2 51.7z" fill="#9CD2CE" shape-rendering="crispEdges"/><path d="M462.6 7.3l-18.9-31.8 11.7 37.4z" fill="#B3DDDE" shape-rendering="crispEdges"/><path d="M331.1 38.8l-24.6 7.3 9.4 24.4z" fill="#A9DDB8" shape-rendering="crispEdges"/><path d="M315.9 70.5l-18.7 8 34.5 33.1z" fill="#85CBC3" shape-rendering="crispEdges"/><path d="M317.1 16.2l-10.6 29.9 24.6-7.3z" fill="#B9E3C1" shape-rendering="crispEdges"/><path d="M472.8 123.1l29-16.8-32.1.7z" fill="#45A2C7" shape-rendering="crispEdges"/><path d="M473 85.2l41.3-3.6L463.8 59z" fill="#6AC1CB" shape-rendering="crispEdges"/><path d="M519 146.5l-17.2-40.2-29 16.8z" fill="#3993C2" shape-rendering="crispEdges"/><path d="M360.5-26.6l-43.4 42.8L359 27.1z" fill="#C3E7D3" shape-rendering="crispEdges"/><path d="M467.2-6.3l-23.5-18.2 18.9 31.8z" fill="#B3DDDE" shape-rendering="crispEdges"/><path d="M363.2 178.8l29.9-3.6-21.4-27.2z" fill="#5584A1" shape-rendering="crispEdges"/><path d="M371.7 148l21.4 27.2 27.5-20.1z" fill="#4F83A2" shape-rendering="crispEdges"/><path d="M420.6 155.1l-10 31.6 20.6-30.5z" fill="#4980A4" shape-rendering="crispEdges"/><path d="M306.5 46.1l-9.3 32.4 18.7-8z" fill="#9DD8B9" shape-rendering="crispEdges"/><path d="M399.2-52.2l-38.7 25.6 37.9 7.3z" fill="#BFE5D9" shape-rendering="crispEdges"/><path d="M398.4-19.3l-37.9-7.3L383 27z" fill="#C0E6D8" shape-rendering="crispEdges"/><path d="M501.8 106.3l12.5-24.7-41.3 3.6z" fill="#53B5D2" shape-rendering="crispEdges"/><path d="M470.3-45l-36.7 8.2 10.1 12.3z" fill="#B4DEDE" shape-rendering="crispEdges"/><path d="M443.7-24.5l-10.1-12.3-7.8 32.6z" fill="#B6E0DD" shape-rendering="crispEdges"/><path d="M331.2 172.8l32 6 8.5-30.8z" fill="#5A86A0" shape-rendering="crispEdges"/><path d="M331.2 172.8l40.5-24.8-38-23.8z" fill="#5D89A1" shape-rendering="crispEdges"/><path d="M514.3 81.6L513 32.8 463.8 59z" fill="#81C7C5" shape-rendering="crispEdges"/><path d="M470.3-45l-48.1-3.6 11.4 11.8z" fill="#B5DFDD" shape-rendering="crispEdges"/><path d="M389.3 206.5l21.3-19.8-17.5-11.5z" fill="#4E83A3" shape-rendering="crispEdges"/><path d="M393.1 175.2l17.5 11.5 10-31.6z" fill="#4C82A3" shape-rendering="crispEdges"/><path d="M431.2 156.2l36.8 22.2-16-43.5z" fill="#417DA6" shape-rendering="crispEdges"/><path d="M297.2 78.5l-3.5 28.6 38 4.5z" fill="#7DC1C2" shape-rendering="crispEdges"/><path d="M537.6 95.7l-13.5-16-9.8 1.9z" fill="#56B3CD" shape-rendering="crispEdges"/><path d="M514.3 81.6l9.8-1.9L513 32.8z" fill="#75C0C6" shape-rendering="crispEdges"/><path d="M470.3-45l-26.6 20.5 23.5 18.2z" fill="#B2DCDF" shape-rendering="crispEdges"/><path d="M433.6-36.8l-11.4-11.8-23.8 29.3z" fill="#B9E2DB" shape-rendering="crispEdges"/><path d="M540 30.9l-25.4-15.3-1.6 17.2z" fill="#99CCD1" shape-rendering="crispEdges"/><path d="M513 32.8l1.6-17.2-52-8.3z" fill="#A1D3D7" shape-rendering="crispEdges"/><path d="M422.2-48.6l-23-3.6-.8 32.9z" fill="#BBE3DA" shape-rendering="crispEdges"/><path d="M455.2 203.7l12.8-25.3-36.8-22.2z" fill="#417DA6" shape-rendering="crispEdges"/><path d="M501.8 106.3l35.8-10.6-23.3-14.1z" fill="#4BAFD1" shape-rendering="crispEdges"/><path d="M294.2 144.7l37 28.1 2.5-48.6z" fill="#648CA1" shape-rendering="crispEdges"/><path d="M333.8-48.9l-16.7 31 43.4-8.7z" fill="#C8E9D5" shape-rendering="crispEdges"/><path d="M360.5-26.6l-43.4 8.7v34.1z" fill="#CAEAD5" shape-rendering="crispEdges"/><path d="M317.1 16.2l-39.7 10.4 29.1 19.5z" fill="#BEE6C2" shape-rendering="crispEdges"/><path d="M260.5 79.5l17.7 20 19-21z" fill="#8ECFC3" shape-rendering="crispEdges"/><path d="M265.6 33.8l31.6 44.7 9.3-32.4z" fill="#ADDFB7" shape-rendering="crispEdges"/><path d="M297.2 78.5l-19 21 15.5 7.6z" fill="#84C7C5" shape-rendering="crispEdges"/><path d="M293.7 107.1l.5 37.6 39.5-20.5z" fill="#70A6B5" shape-rendering="crispEdges"/><path d="M514.6 15.6l-5.1-21.1-46.9 12.8z" fill="#A9D6DE" shape-rendering="crispEdges"/><path d="M266.7 129l27.5 15.7-.5-37.6z" fill="#74A5B5" shape-rendering="crispEdges"/><path d="M509.5-5.5L470.3-45l-3.1 38.7z" fill="#AFD9E0" shape-rendering="crispEdges"/><path d="M422.2-48.6l91.7 1.5-114.7-5.1z" fill="#B5DEDD" shape-rendering="crispEdges"/><path d="M294.2-7.9l-6.5 12.8 29.4 11.3z" fill="#CDECD0" shape-rendering="crispEdges"/><path d="M287.7 4.9l-10.3 21.7 39.7-10.4z" fill="#C7E9CA" shape-rendering="crispEdges"/><path d="M546.2 133.9l-8.6-38.2-35.8 10.6z" fill="#3A9AC6" shape-rendering="crispEdges"/><path d="M524.1 79.7L540 30.9l-27 1.9z" fill="#89C5C6" shape-rendering="crispEdges"/><path d="M514.6 15.6l29.8-24-34.9 2.9z" fill="#A9D2DF" shape-rendering="crispEdges"/><path d="M348.3 196.4l41 10.1-26.1-27.7z" fill="#5785A1" shape-rendering="crispEdges"/><path d="M363.2 178.8l26.1 27.7 3.8-31.3z" fill="#5384A2" shape-rendering="crispEdges"/><path d="M455.2 203.7l17.8-9.9-5-15.4z" fill="#3D7BA7" shape-rendering="crispEdges"/><path d="M317.1-17.9l-22.9 10 22.9 24.1z" fill="#CEECD3" shape-rendering="crispEdges"/><path d="M399.2-52.2L356.7-56l3.8 29.4z" fill="#C1E7D8" shape-rendering="crispEdges"/><path d="M317.1-17.9l-11.2-32.6-11.7 42.6z" fill="#CFECD3" shape-rendering="crispEdges"/><path d="M501.6 176.8l17.4-30.3-46.2-23.4z" fill="#3379AB" shape-rendering="crispEdges"/><path d="M320.2 190.8l28.1 5.6-17.1-23.6z" fill="#60889E" shape-rendering="crispEdges"/><path d="M331.2 172.8l17.1 23.6 14.9-17.6z" fill="#5C869F" shape-rendering="crispEdges"/><path d="M356.7-56l-22.9 7.1 26.7 22.3z" fill="#C6E8D6" shape-rendering="crispEdges"/><path d="M455.2 203.7l-24-47.5-20.6 30.5z" fill="#467FA5" shape-rendering="crispEdges"/><path d="M468 178.4l33.6-1.6-28.8-53.7z" fill="#3979A8" shape-rendering="crispEdges"/><path d="M570 47l-30-16.1-15.9 48.8z" fill="#81C0C2" shape-rendering="crispEdges"/><path d="M389.3 206.5l65.9-2.8-44.6-17z" fill="#4980A4" shape-rendering="crispEdges"/><path d="M473 193.8l28.6-17-33.6 1.6z" fill="#3979A8" shape-rendering="crispEdges"/><path d="M266.1-8.9l11.3 35.5 10.3-21.7z" fill="#CFECD0" shape-rendering="crispEdges"/><path d="M266.1-8.9l-.5 42.7 11.8-7.2z" fill="#CBEBCB" shape-rendering="crispEdges"/><path d="M277.4 26.6l-11.8 7.2 40.9 12.3z" fill="#BEE6BF" shape-rendering="crispEdges"/><path d="M265.6 33.8l-5.1 45.7 36.7-1z" fill="#A4DBBA" shape-rendering="crispEdges"/><path d="M266.7 129l21.5 31.4 6-15.7z" fill="#6D91A4" shape-rendering="crispEdges"/><path d="M288.2 160.4l32 30.4 11-18z" fill="#65899D" shape-rendering="crispEdges"/><path d="M348.3 196.4l-66.1 9 107.1 1.1z" fill="#5E879F" shape-rendering="crispEdges"/><path d="M266.7 129l27-21.9-15.5-7.6z" fill="#7BB5BC" shape-rendering="crispEdges"/><path d="M294.2 144.7l-6 15.7 43 12.4z" fill="#678A9D" shape-rendering="crispEdges"/><path d="M563.6 21.3L545 22.6l-5 8.3z" fill="#97C7CF" shape-rendering="crispEdges"/><path d="M540 30.9l5-8.3-30.4-7z" fill="#9ACBD2" shape-rendering="crispEdges"/><path d="M509.5-5.5l4.4-41.6-43.6 2.1z" fill="#ACD7E2" shape-rendering="crispEdges"/><path d="M230.4 107l36.3 22 11.5-29.5z" fill="#7FB7BE" shape-rendering="crispEdges"/><path d="M546.2 133.9l6.9-30.1-15.5-8.1z" fill="#3798C4" shape-rendering="crispEdges"/><path d="M537.6 95.7l20.6-11.5-34.1-4.5z" fill="#53B0CC" shape-rendering="crispEdges"/><path d="M546.2 133.9l-44.4-27.6 17.2 40.2z" fill="#328BBE" shape-rendering="crispEdges"/><path d="M553.1 103.8l5.1-19.6-20.6 11.5z" fill="#46A8CD" shape-rendering="crispEdges"/><path d="M533.1 160.3l13.1-26.4-27.2 12.6z" fill="#2D75AA" shape-rendering="crispEdges"/><path d="M590.6 36.7L570 47l31.7 38.5z" fill="#78B6BC" shape-rendering="crispEdges"/><path d="M536.6 196.7l-3.5-36.4-31.5 16.5z" fill="#2E73A7" shape-rendering="crispEdges"/><path d="M501.6 176.8l31.5-16.5-14.1-13.8z" fill="#2F74A8" shape-rendering="crispEdges"/><path d="M356.7-56l-50.8 5.5 27.9 1.6z" fill="#C9EAD5" shape-rendering="crispEdges"/><path d="M333.8-48.9l-27.9-1.6 11.2 32.6z" fill="#CCEBD4" shape-rendering="crispEdges"/><path d="M294.2-7.9l-28.1-1 21.6 13.8z" fill="#D3EED4" shape-rendering="crispEdges"/><path d="M226.4 20.5L246 54.6l19.6-20.8z" fill="#C4E8C2" shape-rendering="crispEdges"/><path d="M265.6 33.8L246 54.6l14.5 24.9z" fill="#B0E0B9" shape-rendering="crispEdges"/><path d="M260.5 79.5L230.4 107l47.8-7.5z" fill="#8AC9C7" shape-rendering="crispEdges"/><path d="M266.5-55.9l-.4 47 28.1 1z" fill="#D4EED4" shape-rendering="crispEdges"/><path d="M563.6 21.3L544.4-8.4l.6 31z" fill="#9ECAD6" shape-rendering="crispEdges"/><path d="M545 22.6l-.6-31-29.8 24z" fill="#A1CDD9" shape-rendering="crispEdges"/><path d="M540.4-38.1l-26.5-9-4.4 41.6z" fill="#A9D3E0" shape-rendering="crispEdges"/><path d="M470.3-45l43.6-2.1-91.7-1.5zM399.2-52.2l244.7-4.7-287.2.9z" fill="#B1DBDF" shape-rendering="crispEdges"/><path d="M570 47l-6.4-25.7-23.6 9.6z" fill="#91C4C9" shape-rendering="crispEdges"/><path d="M558.2 84.2L570 47l-45.9 32.7z" fill="#68B7C5" shape-rendering="crispEdges"/><path d="M586.8 121.2l-28.6-37-5.1 19.6z" fill="#3B9CC7" shape-rendering="crispEdges"/><path d="M231.6 137.6l39.9 37-4.8-45.6z" fill="#7190A3" shape-rendering="crispEdges"/><path d="M266.7 129l4.8 45.6 16.7-14.2z" fill="#6C8C9E" shape-rendering="crispEdges"/><path d="M288.2 160.4l-10.7 23.4 42.7 7z" fill="#688A9D" shape-rendering="crispEdges"/><path d="M271.5 174.6l6 9.2 10.7-23.4z" fill="#6B8B9E" shape-rendering="crispEdges"/><path d="M320.2 190.8l-38 14.6 66.1-9z" fill="#64899D" shape-rendering="crispEdges"/><path d="M533.1 160.3l30.4-25.4-17.3-1z" fill="#2A76AD" shape-rendering="crispEdges"/><path d="M546.2 133.9l17.3 1-10.4-31.1z" fill="#2E89BD" shape-rendering="crispEdges"/><path d="M206.1 45.2l25.8 33.7L246 54.6z" fill="#B2E1BC" shape-rendering="crispEdges"/><path d="M246 54.6l-14.1 24.3 28.6.6z" fill="#A2DABF" shape-rendering="crispEdges"/><path d="M473 193.8l40.6 12.7-12-29.7z" fill="#3478A9" shape-rendering="crispEdges"/><path d="M533.1 160.3l38.5 14-8.1-39.4z" fill="#286DA4" shape-rendering="crispEdges"/><path d="M455.2 203.7l58.4 2.8-40.6-12.7z" fill="#3979A8" shape-rendering="crispEdges"/><path d="M389.3 206.5h124.3l-58.4-2.8z" fill="#417DA6" shape-rendering="crispEdges"/><path d="M570.5-13.5l-30.1-24.6 4 29.7z" fill="#A5CCDC" shape-rendering="crispEdges"/><path d="M544.4-8.4l-4-29.7-30.9 32.6z" fill="#A8D1DE" shape-rendering="crispEdges"/><path d="M231.9 78.9l-1.5 28.1 30.1-27.5z" fill="#93CFC7" shape-rendering="crispEdges"/><path d="M235.1 208.7l42.4-24.9-6-9.2z" fill="#6F8C9F" shape-rendering="crispEdges"/><path d="M235.1 208.7l47.1-3.3-4.7-21.6z" fill="#6E8C9F" shape-rendering="crispEdges"/><path d="M277.5 183.8l4.7 21.6 38-14.6z" fill="#698A9D" shape-rendering="crispEdges"/><path d="M513.6 206.5l23-9.8-35-19.9z" fill="#2F74A8" shape-rendering="crispEdges"/><path d="M230.4 107l1.2 30.6 35.1-8.6z" fill="#7DABBA" shape-rendering="crispEdges"/><path d="M231.1-23.4l-4.7 43.9 39.7-29.4z" fill="#DAF1D7" shape-rendering="crispEdges"/><path d="M266.1-8.9l-39.7 29.4 39.2 13.3z" fill="#CFECCE" shape-rendering="crispEdges"/><path d="M231.9 78.9l-27.4 2.4 25.9 25.7z" fill="#96D0C9" shape-rendering="crispEdges"/><path d="M213.5 147l11 6.5 7.1-15.9z" fill="#7793A7" shape-rendering="crispEdges"/><path d="M591.5 8.3l-21-21.8-6.9 34.8z" fill="#9FC6D7" shape-rendering="crispEdges"/><path d="M563.6 21.3l6.9-34.8-26.1 5.1z" fill="#A4CBDC" shape-rendering="crispEdges"/><path d="M356.7-56l-90.2.1 39.4 5.4z" fill="#CEECD3" shape-rendering="crispEdges"/><path d="M305.9-50.5l-39.4-5.4 27.7 48z" fill="#D2EDD3" shape-rendering="crispEdges"/><path d="M571.6 174.3l15.2-53.1-23.3 13.7z" fill="#2471A9" shape-rendering="crispEdges"/><path d="M563.5 134.9l23.3-13.7-33.7-17.4z" fill="#2D8BBE" shape-rendering="crispEdges"/><path d="M570 47l20.6-10.3-27-15.4z" fill="#8EC0C6" shape-rendering="crispEdges"/><path d="M601.7 85.5L570 47l-11.8 37.2z" fill="#62B1C3" shape-rendering="crispEdges"/><path d="M536.6 196.7l35-22.4-38.5-14z" fill="#296EA5" shape-rendering="crispEdges"/><path d="M590.6 36.7l.9-28.4-27.9 13z" fill="#94C1CD" shape-rendering="crispEdges"/><path d="M603.2 91l-45-6.8 28.6 37z" fill="#3C9DC7" shape-rendering="crispEdges"/><path d="M603.2 91l-1.5-5.5-43.5-1.3z" fill="#4CA6C7" shape-rendering="crispEdges"/><path d="M590.6 36.7l29.5-31.9-28.6 3.5z" fill="#95BECE" shape-rendering="crispEdges"/><path d="M205.5 112.8l26.1 24.8-1.2-30.6z" fill="#83B2BE" shape-rendering="crispEdges"/><path d="M231.6 137.6l-7.1 15.9 47 21.1z" fill="#728EA1" shape-rendering="crispEdges"/><path d="M266.5-55.9l-35.4 32.5 35 14.5z" fill="#D8F0D6" shape-rendering="crispEdges"/><path d="M617.5 112.3L603.2 91l-16.4 30.2z" fill="#3090C0" shape-rendering="crispEdges"/><path d="M620.1 4.8l-27.8-7.2-.8 10.7z" fill="#9DC1D5" shape-rendering="crispEdges"/><path d="M197.1 1.1l9 44.1 20.3-24.7z" fill="#D2EECD" shape-rendering="crispEdges"/><path d="M226.4 20.5l-20.3 24.7 39.9 9.4z" fill="#C5E8C2" shape-rendering="crispEdges"/><path d="M206.1 45.2l-1.6 36.1 27.4-2.4z" fill="#ABDDC1" shape-rendering="crispEdges"/><path d="M570.5-13.5l-2.4-31.2-27.7 6.6z" fill="#A4CBDC" shape-rendering="crispEdges"/><path d="M540.4-38.1l27.7-6.6-54.2-2.4z" fill="#A7CFDD" shape-rendering="crispEdges"/><path d="M513.9-47.1l130-9.8-244.7 4.7z" fill="#A9D3E0" shape-rendering="crispEdges"/><path d="M602.9-36.5l-34.8-8.2 2.4 31.2z" fill="#A1C6D9" shape-rendering="crispEdges"/><path d="M613.2 48.1l-22.6-11.4 11.1 48.8z" fill="#76B3BB" shape-rendering="crispEdges"/><path d="M591.5 8.3l.8-10.7-21.8-11.1z" fill="#A1C5D9" shape-rendering="crispEdges"/><path d="M204.5 81.3l1 31.5 24.9-5.8z" fill="#8FC6C8" shape-rendering="crispEdges"/><path d="M205.5 112.8l8 34.2 18.1-9.4z" fill="#7EA4B7" shape-rendering="crispEdges"/><path d="M213.5 184.3l21.6 24.4 36.4-34.1z" fill="#728EA1" shape-rendering="crispEdges"/><path d="M623.7 82.1l-10.5-34-11.5 37.4z" fill="#5EAABF" shape-rendering="crispEdges"/><path d="M266.5-55.9L224-36.8l7.1 13.4z" fill="#DAF1D7" shape-rendering="crispEdges"/><path d="M231.1-23.4l-34 24.5 29.3 19.4z" fill="#DEF2D9" shape-rendering="crispEdges"/><path d="M536.6 196.7l30.4 12.5 4.6-34.9z" fill="#276CA3" shape-rendering="crispEdges"/><path d="M636 142.3l-18.5-30-30.7 8.9z" fill="#217DB7" shape-rendering="crispEdges"/><path d="M513.6 206.5l53.4 2.7-30.4-12.5z" fill="#2B70A5" shape-rendering="crispEdges"/><path d="M389.3 206.5l177.7 2.7-53.4-2.7z" fill="#3678A9" shape-rendering="crispEdges"/><path d="M235.1 208.7l331.9.5-177.7-2.7z" fill="#4F83A3" shape-rendering="crispEdges"/><path d="M601 178.7l-14.2-57.5-15.2 53.1z" fill="#2167A0" shape-rendering="crispEdges"/><path d="M603.2 91l20.5-8.9-22 3.4z" fill="#4AA2C5" shape-rendering="crispEdges"/><path d="M213.5 184.3l58-9.7-47-21.1z" fill="#738EA1" shape-rendering="crispEdges"/><path d="M282.2 205.4l-47.1 3.3 154.2-2.2z" fill="#678A9C" shape-rendering="crispEdges"/><path d="M200.3-21.6l-3.2 22.7 34-24.5z" fill="#E0F3DA" shape-rendering="crispEdges"/><path d="M171.3 56.9L185.6 86l18.9-4.7z" fill="#A8DCC6" shape-rendering="crispEdges"/><path d="M204.5 81.3L185.6 86l19.9 26.8z" fill="#97CFCD" shape-rendering="crispEdges"/><path d="M617.5 112.3l6.2-30.2-20.5 8.9z" fill="#3B9BC6" shape-rendering="crispEdges"/><path d="M171.3 56.9l33.2 24.4 1.6-36.1z" fill="#B6E2C0" shape-rendering="crispEdges"/><path d="M205.5 112.8l-16.3 9.6 24.3 24.6z" fill="#83AABB" shape-rendering="crispEdges"/><path d="M199.1 161.1l14.4 23.2 11-30.8z" fill="#778FA3" shape-rendering="crispEdges"/><path d="M176.6 107.7l12.6 14.7 16.3-9.6z" fill="#8AB9C3" shape-rendering="crispEdges"/><path d="M199.1 161.1l25.4-7.6-11-6.5z" fill="#778FA3" shape-rendering="crispEdges"/><path d="M567 209.2l17.7-5.4-13.1-29.5z" fill="#246AA2" shape-rendering="crispEdges"/><path d="M584.7 203.8l16.3-25.1-29.4-4.4z" fill="#2167A1" shape-rendering="crispEdges"/><path d="M185.3 151.7l13.8 9.4 14.4-14.1z" fill="#7990A4" shape-rendering="crispEdges"/><path d="M224-36.8l-23.7 15.2 30.8-1.8z" fill="#DEF2D9" shape-rendering="crispEdges"/><path d="M613.2 48.1l6.9-43.3-29.5 31.9z" fill="#8DBAC6" shape-rendering="crispEdges"/><path d="M592.3-2.4l10.6-34.1-32.4 23z" fill="#A0C5D9" shape-rendering="crispEdges"/><path d="M641.9 45.8l-21.8-41-6.9 43.3z" fill="#8AB6C3" shape-rendering="crispEdges"/><path d="M618.4-23.1l-15.5-13.4-10.6 34.1z" fill="#9EC1D7" shape-rendering="crispEdges"/><path d="M185.6 86l-9 21.7 28.9 5.1z" fill="#92C6C9" shape-rendering="crispEdges"/><path d="M189.2 122.4l-3.9 29.3 28.2-4.7z" fill="#7E9CB0" shape-rendering="crispEdges"/><path d="M157.8 103.2l18.8 4.5 9-21.7z" fill="#96CACD" shape-rendering="crispEdges"/><path d="M182.1 3.3l24 41.9-9-44.1z" fill="#D8F0D2" shape-rendering="crispEdges"/><path d="M183.8-5l-1.7 8.3 15-2.2z" fill="#E3F4DC" shape-rendering="crispEdges"/><path d="M132.9 124.4l52.4 27.3 3.9-29.3z" fill="#84A6BB" shape-rendering="crispEdges"/><path d="M199.1 161.1l-24.9 43.3 39.3-20.1z" fill="#7A90A4" shape-rendering="crispEdges"/><path d="M200.3-21.6L183.8-5l13.3 6.1z" fill="#E2F4DB" shape-rendering="crispEdges"/><path d="M182.1 3.3l-10.8 53.6 34.8-11.7z" fill="#CFECC8" shape-rendering="crispEdges"/><path d="M620.1 4.8l-1.7-27.9-26.1 20.7z" fill="#9EC0D6" shape-rendering="crispEdges"/><path d="M224-36.8l-28.1-.1 4.4 15.3z" fill="#E0F3DA" shape-rendering="crispEdges"/><path d="M200.3-21.6l-17.9-16L183.8-5z" fill="#E3F4DC" shape-rendering="crispEdges"/><path d="M266.5-55.9l-70.6 19 28.1.1z" fill="#DCF2D8" shape-rendering="crispEdges"/><path d="M667.7 88.2l-25.8-42.4-18.2 36.3z" fill="#5CA4BC" shape-rendering="crispEdges"/><path d="M623.7 82.1l18.2-36.3-28.7 2.3z" fill="#71ADB9" shape-rendering="crispEdges"/><path d="M652.3-24.4l-13-11.7-20.9 13z" fill="#9CBBD4" shape-rendering="crispEdges"/><path d="M664.6 105.2l-40.9-23.1-6.2 30.2z" fill="#3592C2" shape-rendering="crispEdges"/><path d="M584.7 203.8l32.1-21.3-15.8-3.8z" fill="#1E659F" shape-rendering="crispEdges"/><path d="M601 178.7l35-36.4-49.2-21.1z" fill="#1D66A1" shape-rendering="crispEdges"/><path d="M623.7 178.9l12.3-36.6-35 36.4z" fill="#1B619D" shape-rendering="crispEdges"/><path d="M663.6 166.2l-39.9 12.7 35.2 9.4z" fill="#165C9B" shape-rendering="crispEdges"/><path d="M616.8 182.5l6.9-3.6-22.7-.2z" fill="#1C629E" shape-rendering="crispEdges"/><path d="M266.5-55.9l-84.1 18.3 13.5.7z" fill="#DFF3D9" shape-rendering="crispEdges"/><path d="M195.9-36.9l-13.5-.7 17.9 16z" fill="#E2F4DB" shape-rendering="crispEdges"/><path d="M154.5-14.7l-2.6 25.4 30.2-7.4z" fill="#E5F5DE" shape-rendering="crispEdges"/><path d="M133.3 31.9l12.6 30.2 25.4-5.2z" fill="#C5E8C5" shape-rendering="crispEdges"/><path d="M145.9 62.1l11.9 41.1L185.6 86z" fill="#A3D7CC" shape-rendering="crispEdges"/><path d="M176.6 107.7l-43.7 16.7 56.3-2z" fill="#8BB5C4" shape-rendering="crispEdges"/><path d="M145.9 62.1L185.6 86l-14.3-29.1z" fill="#B1E0C5" shape-rendering="crispEdges"/><path d="M652.3-24.4l-33.9 1.3 1.7 27.9z" fill="#9CBCD5" shape-rendering="crispEdges"/><path d="M618.4-23.1l20.9-13-36.4-.4z" fill="#9DBED6" shape-rendering="crispEdges"/><path d="M602.9-36.5l41-20.4-75.8 12.2z" fill="#9EC1D7" shape-rendering="crispEdges"/><path d="M151.9 10.7l19.4 46.2 10.8-53.6z" fill="#D7EFD1" shape-rendering="crispEdges"/><path d="M154.5-14.7l27.6 18 1.7-8.3z" fill="#E4F5DD" shape-rendering="crispEdges"/><path d="M636 142.3l28.6-37.1-47.1 7.1z" fill="#217EB7" shape-rendering="crispEdges"/><path d="M641.9 45.8l20.2-23.4-42-17.6z" fill="#8DB5C6" shape-rendering="crispEdges"/><path d="M661.3 143.1l3.3-37.9-28.6 37.1z" fill="#1671B1" shape-rendering="crispEdges"/><path d="M673.4 54.8l-11.3-32.4-20.2 23.4z" fill="#82ADBC" shape-rendering="crispEdges"/><path d="M664.6 105.2l3.1-17-44-6.1z" fill="#3D97C3" shape-rendering="crispEdges"/><path d="M182.4-37.6l-27.9 22.9L183.8-5z" fill="#E4F5DD" shape-rendering="crispEdges"/><path d="M151.9 10.7l-18.6 21.2 38 25z" fill="#D3EECD" shape-rendering="crispEdges"/><path d="M662.1 22.4l-9.8-46.8-32.2 29.2z" fill="#9AB9D3" shape-rendering="crispEdges"/><path d="M155.8 195.2l18.4 9.2 11.1-52.7z" fill="#7C91A7" shape-rendering="crispEdges"/><path d="M185.3 151.7l-11.1 52.7 24.9-43.3z" fill="#7B91A5" shape-rendering="crispEdges"/><path d="M213.5 184.3l-39.3 20.1 60.9 4.3z" fill="#7890A3" shape-rendering="crispEdges"/><path d="M132.9 124.4l43.7-16.7-18.8-4.5z" fill="#8FBDC8" shape-rendering="crispEdges"/><path d="M663.6 166.2l-2.3-23.1-25.3-.8z" fill="#155C9A" shape-rendering="crispEdges"/><path d="M664.6 105.2l20 7.6-16.9-24.6z" fill="#2F89BD" shape-rendering="crispEdges"/><path d="M691.1 73.4l-17.7-18.6-5.7 33.4z" fill="#599EBA" shape-rendering="crispEdges"/><path d="M667.7 88.2l5.7-33.4-31.5-9z" fill="#69A5B8" shape-rendering="crispEdges"/><path d="M662.1 22.4l31.6-30.6-41.4-16.2z" fill="#99B5D1" shape-rendering="crispEdges"/><path d="M696.8-41.2l-52.9-15.7 8.4 32.5z" fill="#99B6D2" shape-rendering="crispEdges"/><path d="M652.3-24.4l-8.4-32.5-4.6 20.8z" fill="#9BB9D3" shape-rendering="crispEdges"/><path d="M639.3-36.1l4.6-20.8-41 20.4z" fill="#9CBDD5" shape-rendering="crispEdges"/><path d="M568.1-44.7l75.8-12.2-130 9.8z" fill="#A2C7DA" shape-rendering="crispEdges"/><path d="M356.7-56l-236.1-1.2 145.9 1.3z" fill="#D9F0D6" shape-rendering="crispEdges"/><path d="M120.6-57.2L154-36l28.4-1.6z" fill="#E6F5E0" shape-rendering="crispEdges"/><path d="M182.4-37.6L154-36l.5 21.3z" fill="#E5F5DE" shape-rendering="crispEdges"/><path d="M125.8-12.3l7.5 44.2 18.6-21.2z" fill="#E2F4DC" shape-rendering="crispEdges"/><path d="M125.8-12.3l26.1 23 2.6-25.4z" fill="#E7F6E1" shape-rendering="crispEdges"/><path d="M117.7 108.9l15.2 15.5 24.9-21.2z" fill="#90BDC9" shape-rendering="crispEdges"/><path d="M623.7 178.9l39.9-12.7-27.6-23.9z" fill="#175E9B" shape-rendering="crispEdges"/><path d="M661.3 143.1l12.7-3.5-9.4-34.4z" fill="#1470B0" shape-rendering="crispEdges"/><path d="M658.9 188.3l-35.2-9.4-6.9 3.6z" fill="#185F9C" shape-rendering="crispEdges"/><path d="M117.7 108.9l40.1-5.7-11.9-41.1z" fill="#9ED3D2" shape-rendering="crispEdges"/><path d="M130.7 175.5l25.1 19.7 29.5-43.5z" fill="#7D92A8" shape-rendering="crispEdges"/><path d="M663.6 166.2l10.4-26.6-12.7 3.5z" fill="#125A9A" shape-rendering="crispEdges"/><path d="M104.9 12.2l21.8 30.3 6.6-10.6z" fill="#D8F0D3" shape-rendering="crispEdges"/><path d="M133.3 31.9l-6.6 10.6 19.2 19.6z" fill="#CBEBC9" shape-rendering="crispEdges"/><path d="M678.8 207.8l-19.9-19.5-42.1-5.8z" fill="#155C9B" shape-rendering="crispEdges"/><path d="M663.6 166.2l11.7 8-1.3-34.6z" fill="#115999" shape-rendering="crispEdges"/><path d="M678.8 207.8l-62-25.3-32.1 21.3z" fill="#1A609D" shape-rendering="crispEdges"/><path d="M717.1 98.4l-32.5 14.4 42.5 30.8z" fill="#1972B0" shape-rendering="crispEdges"/><path d="M674 139.6l10.6-26.8-20-7.6z" fill="#1D78B4" shape-rendering="crispEdges"/><path d="M684.6 112.8l6.5-39.4-23.4 14.8z" fill="#3B92C0" shape-rendering="crispEdges"/><path d="M673.4 54.8l15-33.2-26.3.8z" fill="#86ACBF" shape-rendering="crispEdges"/><path d="M725.6 42.8l-37.2-21.2-15 33.2z" fill="#80A7B9" shape-rendering="crispEdges"/><path d="M104.9 88.8l12.8 20.1 28.2-46.8z" fill="#A4D7D2" shape-rendering="crispEdges"/><path d="M132.9 124.4l-2.2 51.1 54.6-23.8z" fill="#7E92A9" shape-rendering="crispEdges"/><path d="M658.9 188.3l16.4-14.1-11.7-8z" fill="#125999" shape-rendering="crispEdges"/><path d="M725.6 42.8l-52.2 12 17.7 18.6z" fill="#6EA0B3" shape-rendering="crispEdges"/><path d="M154-36l-28.2 23.7 28.7-2.4z" fill="#E7F6E0" shape-rendering="crispEdges"/><path d="M126.7 42.5l-21.8 46.3 41-26.7z" fill="#B9E3C8" shape-rendering="crispEdges"/><path d="M117.7 108.9l.8 21.7 14.4-6.2z" fill="#8DB4C7" shape-rendering="crispEdges"/><path d="M116.9 160.1l13.8 15.4 2.2-51.1z" fill="#8093AC" shape-rendering="crispEdges"/><path d="M703.5 16.1l-9.8-24.3-5.3 29.8z" fill="#91ADCA" shape-rendering="crispEdges"/><path d="M688.4 21.6l5.3-29.8-31.6 30.6z" fill="#91AFCA" shape-rendering="crispEdges"/><path d="M117.7 108.9l-34.1 7.2 34.9 14.5z" fill="#90B7CA" shape-rendering="crispEdges"/><path d="M118.5 130.6l-1.6 29.5 16-35.7z" fill="#86A1BA" shape-rendering="crispEdges"/><path d="M97.2 49.6l7.7 39.2 21.8-46.3z" fill="#BFE6C8" shape-rendering="crispEdges"/><path d="M98.1 167.7l18.8-7.6-29.5-20.7z" fill="#8294AE" shape-rendering="crispEdges"/><path d="M725.6 42.8l-22.1-26.7-15.1 5.5z" fill="#87A7BF" shape-rendering="crispEdges"/><path d="M712.7 71.1l-21.6 2.3 26 25z" fill="#4A93B9" shape-rendering="crispEdges"/><path d="M125.8-12.3l-20.9 24.5 28.4 19.7z" fill="#E3F4DD" shape-rendering="crispEdges"/><path d="M658.9 188.3l19.9 19.5-3.5-33.6z" fill="#115999" shape-rendering="crispEdges"/><path d="M717.1 98.4l-26-25-6.5 39.4z" fill="#348CBF" shape-rendering="crispEdges"/><path d="M567 209.2l111.8-1.4-94.1-4z" fill="#1C639E" shape-rendering="crispEdges"/><path d="M116.9 160.1l3 28 10.8-12.6z" fill="#8093AC" shape-rendering="crispEdges"/><path d="M130.7 175.5l-10.8 12.6 35.9 7.1z" fill="#7F93AB" shape-rendering="crispEdges"/><path d="M155.8 195.2l-61.4.3 79.8 8.9z" fill="#7F92AA" shape-rendering="crispEdges"/><path d="M98.1 167.7l21.8 20.4-3-28z" fill="#8193AD" shape-rendering="crispEdges"/><path d="M684.6 112.8L674 139.6l53.1 4z" fill="#0A68AC" shape-rendering="crispEdges"/><path d="M104.9 12.2l-7.7 37.4 29.5-7.1z" fill="#D7EFD1" shape-rendering="crispEdges"/><path d="M87.4 139.4l29.5 20.7 1.6-29.5z" fill="#859BB5" shape-rendering="crispEdges"/><path d="M266.5-55.9l-145.9-1.3 61.8 19.6z" fill="#E3F4DB" shape-rendering="crispEdges"/><path d="M154-36l-33.4-21.2 5.2 44.9z" fill="#E8F6E2" shape-rendering="crispEdges"/><path d="M89.3-37L83.1 9.7l21.8 2.5z" fill="#ECF8E6" shape-rendering="crispEdges"/><path d="M814.6-59l-694 1.8L356.7-56z" fill="#B7E0DC" shape-rendering="crispEdges"/><path d="M693.7-8.2l3.1-33-44.5 16.8z" fill="#98B2D0" shape-rendering="crispEdges"/><path d="M703.5 16.1l.5-32.9-10.3 8.6z" fill="#96AECE" shape-rendering="crispEdges"/><path d="M755.5-15.9l-51.5-.9-.5 32.9z" fill="#94AACA" shape-rendering="crispEdges"/><path d="M704-16.8l-7.2-24.4-3.1 33z" fill="#96AFCF" shape-rendering="crispEdges"/><path d="M727.1 143.6l-53.1-4 1.3 34.6z" fill="#0C5597" shape-rendering="crispEdges"/><path d="M712.7 71.1l12.9-28.3-34.5 30.6z" fill="#669BB2" shape-rendering="crispEdges"/><path d="M83.6 116.1l34.1-7.2-12.8-20.1z" fill="#99C6D1" shape-rendering="crispEdges"/><path d="M734.7 49.6l-9.1-6.8-12.9 28.3z" fill="#6F9BAD" shape-rendering="crispEdges"/><path d="M704-16.8L720.2-40l-23.4-1.2z" fill="#95ADCD" shape-rendering="crispEdges"/><path d="M68.9 98.3l14.7 17.8 21.3-27.3z" fill="#9DCBD5" shape-rendering="crispEdges"/><path d="M83.6 116.1l3.8 23.3 31.1-8.8z" fill="#8DADC6" shape-rendering="crispEdges"/><path d="M104.9 12.2L83.1 9.7l14.1 39.9z" fill="#DEF2D9" shape-rendering="crispEdges"/><path d="M97.2 49.6L73.8 75.3l31.1 13.5z" fill="#B5E2CF" shape-rendering="crispEdges"/><path d="M89.3-37l15.6 49.2 20.9-24.5z" fill="#EBF7E5" shape-rendering="crispEdges"/><path d="M567 209.2l138.2-1.5-26.4.1z" fill="#155C9B" shape-rendering="crispEdges"/><path d="M678.8 207.8l26.4-.1-29.9-33.5z" fill="#0D5697" shape-rendering="crispEdges"/><path d="M746.9 62.9l-12.2-13.3-22 21.5z" fill="#6697AD" shape-rendering="crispEdges"/><path d="M724.2 173.9l2.9-30.3-51.8 30.6z" fill="#0A5294" shape-rendering="crispEdges"/><path d="M66.3 53.1l7.5 22.2 23.4-25.7z" fill="#C3E8CB" shape-rendering="crispEdges"/><path d="M83.6 116.1l-21.4 18.7 25.2 4.6z" fill="#8EACC7" shape-rendering="crispEdges"/><path d="M743 99.6l-30.3-28.5 4.4 27.3z" fill="#3C8AB9" shape-rendering="crispEdges"/><path d="M745-43.4L720.2-40l35.3 24.1z" fill="#92A5C5" shape-rendering="crispEdges"/><path d="M120.6-57.2L89.3-37l36.5 24.7z" fill="#EAF7E4" shape-rendering="crispEdges"/><path d="M58.7 66.9l10.2 31.4 4.9-23z" fill="#B0DDD5" shape-rendering="crispEdges"/><path d="M53.5 170.8l40.9 24.7 3.7-27.8z" fill="#8495B0" shape-rendering="crispEdges"/><path d="M98.1 167.7l-3.7 27.8 25.5-7.4z" fill="#8294AE" shape-rendering="crispEdges"/><path d="M119.9 188.1l-25.5 7.4 61.4-.3z" fill="#8093AC" shape-rendering="crispEdges"/><path d="M53.5 170.8l44.6-3.1-10.7-28.3z" fill="#8495B0" shape-rendering="crispEdges"/><path d="M757.3 15.5l-53.8.6 22.1 26.7z" fill="#86A3BB" shape-rendering="crispEdges"/><path d="M696.8-41.2l48.2-2.2-101.1-13.5z" fill="#96AFCF" shape-rendering="crispEdges"/><path d="M705.2 207.7l19-33.8-48.9.3z" fill="#0A5396" shape-rendering="crispEdges"/><path d="M66.3 53.1l30.9-3.5-35.4-27.5z" fill="#D5EFD1" shape-rendering="crispEdges"/><path d="M73.8 75.3l-4.9 23 36-9.5z" fill="#A8D8D7" shape-rendering="crispEdges"/><path d="M61.8 22.1l35.4 27.5L83.1 9.7z" fill="#DEF2D8" shape-rendering="crispEdges"/><path d="M752.2 126.3L743 99.6l-25.9-1.2z" fill="#2476AF" shape-rendering="crispEdges"/><path d="M734.7 49.6l22.6-34.1-31.7 27.3z" fill="#7F9EB2" shape-rendering="crispEdges"/><path d="M752.2 126.3l-35.1-27.9 10 45.2z" fill="#1569A9" shape-rendering="crispEdges"/><path d="M743 99.6l3.9-36.7-34.2 8.2z" fill="#4D8FB2" shape-rendering="crispEdges"/><path d="M89.3-37L72.1-20.2l11 29.9z" fill="#EEF8E7" shape-rendering="crispEdges"/><path d="M38 36.5l20.7 30.4 7.6-13.8z" fill="#CDECCE" shape-rendering="crispEdges"/><path d="M66.3 53.1l-7.6 13.8 15.1 8.4z" fill="#BFE6CF" shape-rendering="crispEdges"/><path d="M68.9 98.3l-6.7 36.5 21.4-18.7z" fill="#95BBCE" shape-rendering="crispEdges"/><path d="M60.5-8.3l1.3 30.4L83.1 9.7z" fill="#EAF7E4" shape-rendering="crispEdges"/><path d="M21.4 112.2l40.8 22.6 6.7-36.5z" fill="#98BDD1" shape-rendering="crispEdges"/><path d="M705.2 207.7l28.8-18.8-9.8-15z" fill="#094F92" shape-rendering="crispEdges"/><path d="M752.9 155.3l-.7-29-25.1 17.3z" fill="#0A5496" shape-rendering="crispEdges"/><path d="M776.4 65.7l-6.4-8-23.1 5.2z" fill="#638FA6" shape-rendering="crispEdges"/><path d="M752.9 155.3l-25.8-11.7-2.9 30.3z" fill="#094D8F" shape-rendering="crispEdges"/><path d="M61.8 22.1L38 36.5l28.3 16.6z" fill="#DBF1D5" shape-rendering="crispEdges"/><path d="M72.1-20.2L60.5-8.3l22.6 18z" fill="#EFF9E8" shape-rendering="crispEdges"/><path d="M770 57.7l-12.7-42.2-22.6 34.1z" fill="#7A99AD" shape-rendering="crispEdges"/><path d="M762.5 10.1l-5.2 5.4 45.2 9.8z" fill="#869AB5" shape-rendering="crispEdges"/><path d="M761.1 173.8l-8.2-18.5-28.7 18.6z" fill="#094B8C" shape-rendering="crispEdges"/><path d="M770 57.7l-35.3-8.1 12.2 13.3z" fill="#6B95A7" shape-rendering="crispEdges"/><path d="M755.5-15.9L720.2-40 704-16.8z" fill="#94A8C9" shape-rendering="crispEdges"/><path d="M720.2-40l24.8-3.4-48.2 2.2z" fill="#94AACA" shape-rendering="crispEdges"/><path d="M757.3 15.5l-1.8-31.4-52 32z" fill="#8FA5C3" shape-rendering="crispEdges"/><path d="M746.9 62.9L743 99.6l33.4-33.9z" fill="#4F8CAD" shape-rendering="crispEdges"/><path d="M757.3 15.5l5.2-5.4-7-26z" fill="#8FA1C0" shape-rendering="crispEdges"/><path d="M14.8 131.1l38.7 39.7 8.7-36z" fill="#8A9BB9" shape-rendering="crispEdges"/><path d="M62.2 134.8l-8.7 36 33.9-31.4z" fill="#8697B3" shape-rendering="crispEdges"/><path d="M21.4 112.2l47.5-13.9-10.2-31.4z" fill="#A7D6DC" shape-rendering="crispEdges"/><path d="M776.4 65.7L743 99.6l32.6 4.8z" fill="#3A81B0" shape-rendering="crispEdges"/><path d="M17.9 12.3L38 36.5l23.8-14.4z" fill="#E4F5DE" shape-rendering="crispEdges"/><path d="M734 188.9l27.1-15.1-36.9.1z" fill="#094C8E" shape-rendering="crispEdges"/><path d="M788.6 123.8l-13-19.4-23.4 21.9z" fill="#1965A2" shape-rendering="crispEdges"/><path d="M783.6 194.4l-22.5-20.6-27.1 15.1z" fill="#09488A" shape-rendering="crispEdges"/><path d="M53.5 170.8l-3.2 12 44.1 12.7z" fill="#8695B2" shape-rendering="crispEdges"/><path d="M20 172l30.3 10.8 3.2-12z" fill="#8896B4" shape-rendering="crispEdges"/><path d="M775.6 104.4L743 99.6l9.2 26.7z" fill="#2170AA" shape-rendering="crispEdges"/><path d="M770 57.7l32.5-32.4-45.2-9.8z" fill="#7E96AC" shape-rendering="crispEdges"/><path d="M802.9-1.4l-38.1-20.5-2.3 32z" fill="#8F9DBD" shape-rendering="crispEdges"/><path d="M762.5 10.1l2.3-32-9.3 6z" fill="#90A1C1" shape-rendering="crispEdges"/><path d="M755.5-15.9l9.3-6L745-43.4z" fill="#91A2C2" shape-rendering="crispEdges"/><path d="M788.6 123.8l-36.4 2.5 40.2 18.6z" fill="#0A589B" shape-rendering="crispEdges"/><path d="M120.6-57.2l-71 12.3L89.3-37z" fill="#EDF8E7" shape-rendering="crispEdges"/><path d="M89.3-37l-39.7-7.9 22.5 24.7z" fill="#EFF9E9" shape-rendering="crispEdges"/><path d="M72.1-20.2L49.6-44.9 60.5-8.3z" fill="#F0F9EA" shape-rendering="crispEdges"/><path d="M60.5-8.3l-23.6-5 24.9 35.4z" fill="#F1FAEA" shape-rendering="crispEdges"/><path d="M802.9-1.4l-37.3-36.7-.8 16.2z" fill="#8F9DBD" shape-rendering="crispEdges"/><path d="M764.8-21.9l.8-16.2-20.6-5.3z" fill="#91A1C1" shape-rendering="crispEdges"/><path d="M49.6-44.9L36.9-13.3l23.6 5z" fill="#F1FAEB" shape-rendering="crispEdges"/><path d="M5.6 56.4l16.2 5.2L38 36.5z" fill="#D2EDD2" shape-rendering="crispEdges"/><path d="M38 36.5L21.8 61.6l36.9 5.3z" fill="#CCEBCF" shape-rendering="crispEdges"/><path d="M21.8 61.6l-.4 50.6 37.3-45.3z" fill="#B3DFD9" shape-rendering="crispEdges"/><path d="M792.4 144.9l-40.2-18.6.7 29z" fill="#094F91" shape-rendering="crispEdges"/><path d="M775.6 104.4l21 3.2-20.2-41.9z" fill="#357CAD" shape-rendering="crispEdges"/><path d="M776.4 65.7l26.1-40.4L770 57.7z" fill="#6F90A3" shape-rendering="crispEdges"/><path d="M36.9-13.3l-19 25.6 43.9 9.8z" fill="#EEF9E8" shape-rendering="crispEdges"/><path d="M1.6 134.5l13.2-3.4 6.6-18.9z" fill="#97B4D0" shape-rendering="crispEdges"/><path d="M7.3-20.1l10.6 32.4 19-25.6z" fill="#F5FBEE" shape-rendering="crispEdges"/><path d="M788.6 123.8l8-16.2-21-3.2z" fill="#1F68A2" shape-rendering="crispEdges"/><path d="M2.3 92.2l19.1 20 .4-50.6z" fill="#AEDADE" shape-rendering="crispEdges"/><path d="M21.4 112.2l-6.6 18.9 47.4 3.7z" fill="#95B3CE" shape-rendering="crispEdges"/><path d="M761.1 173.8l31.3-28.9-39.5 10.4z" fill="#094688" shape-rendering="crispEdges"/><path d="M788.6 123.8l16.8 27.5-8.8-43.7z" fill="#0F5899" shape-rendering="crispEdges"/><path d="M14.8 131.1L20 172l33.5-1.2z" fill="#8A97B5" shape-rendering="crispEdges"/><path d="M705.2 207.7l78.4-13.3-49.6-5.5z" fill="#094C8D" shape-rendering="crispEdges"/><path d="M761.1 173.8l22.5 20.6 8.8-49.5z" fill="#094485" shape-rendering="crispEdges"/><path d="M17.9 12.3L5.6 56.4 38 36.5z" fill="#E1F3DA" shape-rendering="crispEdges"/><path d="M814.1 61.4l-11.6-36.1-26.1 40.4z" fill="#6D8C9F" shape-rendering="crispEdges"/><path d="M-.7 66l3 26.2 19.5-30.6z" fill="#BDE5D8" shape-rendering="crispEdges"/><path d="M14.8 131.1l-13.2 3.4L20 172z" fill="#8D9CBC" shape-rendering="crispEdges"/><path d="M-36.2 35.6L-.7 66l6.3-9.6z" fill="#D3EED4" shape-rendering="crispEdges"/><path d="M49.6-44.9l-32.1-1.4 19.4 33z" fill="#F3FAEC" shape-rendering="crispEdges"/><path d="M120.6-57.2L17.5-46.3l32.1 1.4z" fill="#F0F9E9" shape-rendering="crispEdges"/><path d="M802.5 25.3l.4-26.7-40.4 11.5z" fill="#8798B5" shape-rendering="crispEdges"/><path d="M-7.9 21.9L5.6 56.4l12.3-44.1z" fill="#E5F5DE" shape-rendering="crispEdges"/><path d="M5.6 56.4L-.7 66l22.5-4.4z" fill="#C9EAD3" shape-rendering="crispEdges"/><path d="M20 172l1.9 37.3 28.4-26.5z" fill="#8997B5" shape-rendering="crispEdges"/><path d="M50.3 182.8l-28.4 26.5 72.5-13.8z" fill="#8796B3" shape-rendering="crispEdges"/><path d="M94.4 195.5l-72.5 13.8 152.3-4.9z" fill="#8394AF" shape-rendering="crispEdges"/><path d="M174.2 204.4l-152.3 4.9 213.2-.6z" fill="#7E92AA" shape-rendering="crispEdges"/><path d="M235.1 208.7l-213.2.6 545.1-.1z" fill="#6C8C9E" shape-rendering="crispEdges"/><path d="M-12.3 187.9l34.2 21.4L20 172z" fill="#8C97B7" shape-rendering="crispEdges"/><path d="M17.5-46.3L7.3-20.1l29.6 6.8z" fill="#F5FBEE" shape-rendering="crispEdges"/><path d="M-7.3 166.2l8.9-31.7-26 21.8z" fill="#8D98B8" shape-rendering="crispEdges"/><path d="M2.3 92.2l-.7 42.3 19.8-22.3z" fill="#9EC1D6" shape-rendering="crispEdges"/><path d="M783.6 194.4l21.8-43.1-13-6.4z" fill="#084182" shape-rendering="crispEdges"/><path d="M792.4 144.9l13 6.4-16.8-27.5z" fill="#094B8D" shape-rendering="crispEdges"/><path d="M796.6 107.6l17.5-46.2-37.7 4.3z" fill="#4A82A5" shape-rendering="crispEdges"/><path d="M802.5 25.3l32.3-21.1-31.9-5.6z" fill="#8796B3" shape-rendering="crispEdges"/><path d="M841.8 61l-27.7.4 28.9 53.4z" fill="#4980A4" shape-rendering="crispEdges"/><path d="M841.8 61l-22.6-8.5-5.1 8.9z" fill="#65899D" shape-rendering="crispEdges"/><path d="M814.1 61.4l5.1-8.9-16.7-27.2z" fill="#718DA0" shape-rendering="crispEdges"/><path d="M7.3-20.1l-15.2 42 25.8-9.6z" fill="#F3FBED" shape-rendering="crispEdges"/><path d="M-24.4 156.3l26-21.8-45.8.2z" fill="#91A2C2" shape-rendering="crispEdges"/><path d="M783.6 194.4l27.5-13.2-5.7-29.9z" fill="#084081" shape-rendering="crispEdges"/><path d="M843 114.8l-28.9-53.4-17.5 46.2z" fill="#3276A9" shape-rendering="crispEdges"/><path d="M1.6 134.5l.7-42.3-42.4 24.1z" fill="#9EC0D6" shape-rendering="crispEdges"/><path d="M1.6 134.5l-8.9 31.7L20 172z" fill="#8C98B8" shape-rendering="crispEdges"/><path d="M834.2-6.4L814.6-59 802.9-1.4z" fill="#8D98B8" shape-rendering="crispEdges"/><path d="M802.9-1.4L814.6-59l-49 20.9z" fill="#8D99B9" shape-rendering="crispEdges"/><path d="M765.6-38.1l49-20.9L745-43.4z" fill="#8F9DBE" shape-rendering="crispEdges"/><path d="M745-43.4L814.6-59l-170.7 2.1z" fill="#93A7C7" shape-rendering="crispEdges"/><path d="M643.9-56.9L814.6-59l-457.9 3z" fill="#9EC1D7" shape-rendering="crispEdges"/><path d="M-24.4 156.3l12.1 31.6 5-21.7z" fill="#8D98B8" shape-rendering="crispEdges"/><path d="M-7.3 166.2l-5 21.7L20 172z" fill="#8D98B8" shape-rendering="crispEdges"/><path d="M7.3-20.1L-40-22.9l32.1 44.8z" fill="#F7FCF0" shape-rendering="crispEdges"/><path d="M-40.1 116.3L2.3 92.2l-46.9-20.4z" fill="#ACD7E2" shape-rendering="crispEdges"/><path d="M17.5-46.3l-33 4.3L7.3-20.1z" fill="#F7FCF0" shape-rendering="crispEdges"/><path d="M819.2 52.5l15.6-48.3-32.3 21.1z" fill="#7E92AA" shape-rendering="crispEdges"/><path d="M847.6 44.4L834.8 4.2l-15.6 48.3z" fill="#7B91A6" shape-rendering="crispEdges"/><path d="M834.8 4.2l-.6-10.6-31.3 5z" fill="#8D98B8" shape-rendering="crispEdges"/><path d="M-36.2 35.6L5.6 56.4-7.9 21.9z" fill="#E1F3DA" shape-rendering="crispEdges"/><path d="M843 114.8l-46.4-7.2 8.8 43.7z" fill="#135A99" shape-rendering="crispEdges"/><path d="M834.8 4.2l7.7-45.4-8.3 34.8z" fill="#8D98B8" shape-rendering="crispEdges"/><path d="M811.1 181.2l24.7-24.8-30.4-5.1zM783.6 194.4l40.4 9.2-12.9-22.4z" fill="#084081" shape-rendering="crispEdges"/><path d="M811.1 181.2l12.9 22.4 11.8-47.2z" fill="#084081" shape-rendering="crispEdges"/><path d="M705.2 207.7l118.8-4.1-40.4-9.2z" fill="#094687" shape-rendering="crispEdges"/><path d="M843.5 138.2l-.5-23.4-37.6 36.5z" fill="#095092" shape-rendering="crispEdges"/><path d="M-48.6 19.3l12.4 16.3 28.3-13.7z" fill="#E8F6E1" shape-rendering="crispEdges"/><path d="M843 114.8l4.6-70.4-5.8 16.6z" fill="#5083A2" shape-rendering="crispEdges"/><path d="M841.8 61l5.8-16.6-28.4 8.1z" fill="#6B8B9E" shape-rendering="crispEdges"/><path d="M824 203.6l19.5-65.4-7.7 18.2z" fill="#084081" shape-rendering="crispEdges"/><path d="M835.8 156.4l7.7-18.2-38.1 13.1z" fill="#084183" shape-rendering="crispEdges"/><path d="M843 114.8l.5 23.4 4.1-93.8z" fill="#2D72A6" shape-rendering="crispEdges"/><path d="M-44.6 71.8L2.3 92.2-.7 66z" fill="#BAE3DA" shape-rendering="crispEdges"/><path d="M-24.4 156.3l-1.4 44.5 13.5-12.9z" fill="#8D98B8" shape-rendering="crispEdges"/><path d="M-36.2 35.6l-8.4 36.2L-.7 66z" fill="#CEECD3" shape-rendering="crispEdges"/><path d="M-44.2 134.7l18.4 66.1 1.4-44.5zM-12.3 187.9l-13.5 12.9 47.7 8.5z" fill="#8D98B8" shape-rendering="crispEdges"/><path d="M-15.5-42L-40-22.9l47.3 2.8z" fill="#F7FCF0" shape-rendering="crispEdges"/><path d="M-36.2 35.6l-12.4-16.3 4 52.5z" fill="#DDF2D8" shape-rendering="crispEdges"/><path d="M17.5-46.3l-48.1 2.6 15.1 1.7z" fill="#F7FCF0" shape-rendering="crispEdges"/><path d="M120.6-57.2L-30.6-43.7l48.1-2.6z" fill="#F3FAEC" shape-rendering="crispEdges"/><path d="M847.6 44.4l-5.1-85.6-7.7 45.4z" fill="#8B97B7" shape-rendering="crispEdges"/><path d="M834.2-6.4l8.3-34.8L814.6-59z" fill="#8D98B8" shape-rendering="crispEdges"/><path d="M-44.6 71.8l.4 62.9 4.1-18.4z" fill="#A2C8DA" shape-rendering="crispEdges"/><path d="M-40.1 116.3l-4.1 18.4 45.8-.2z" fill="#97B1D0" shape-rendering="crispEdges"/><path d="M-30.6-43.7L-40-22.9-15.5-42z" fill="#F7FCF0" shape-rendering="crispEdges"/><path d="M-40-22.9l-8.6 42.2 40.7 2.6z" fill="#F3FBED" shape-rendering="crispEdges"/><path d="M-44.6 71.8l-4-52.5 4.4 115.4z" fill="#BBE4DA" shape-rendering="crispEdges"/></svg>